<?xml version="1.0" encoding="UTF-8" ?>
<!DOCTYPE svg PUBLIC "-//W3C//DTD SVG 1.1//EN" "http://www.w3.org/Graphics/SVG/1.1/DTD/svg11.dtd">
<svg width="344pt" height="576pt" viewBox="0 0 344 576" version="1.1" xmlns="http://www.w3.org/2000/svg">
<path fill="#ffffff" d=" M 0.00 0.00 L 344.00 0.00 L 344.00 18.36 C 340.95 11.66 336.04 4.40 328.03 3.59 C 317.21 1.44 306.06 11.05 306.49 22.02 C 306.26 26.82 309.57 30.65 311.09 34.97 C 303.89 32.79 296.72 29.91 289.04 30.40 C 275.98 29.39 262.82 33.58 252.41 41.45 C 247.68 44.60 244.34 49.24 240.45 53.28 C 240.27 46.88 241.22 40.32 239.32 34.08 C 236.27 24.02 229.83 14.88 220.87 9.25 C 207.25 0.91 188.73 1.33 175.68 10.64 C 172.42 13.11 169.59 16.08 166.70 18.96 C 166.76 14.75 166.04 10.24 162.64 7.37 C 159.45 3.66 153.97 3.75 149.62 4.86 C 144.30 6.80 142.31 12.55 141.57 17.67 C 139.92 16.61 138.28 15.55 136.64 14.49 C 133.72 15.49 131.61 17.57 130.88 20.61 C 123.56 16.48 116.36 11.91 108.30 9.33 C 89.55 3.21 68.38 3.91 50.38 12.20 C 43.90 15.61 37.06 18.60 31.53 23.52 C 24.61 29.61 18.06 36.31 13.36 44.30 C 3.22 60.81 -0.70 81.03 2.64 100.12 C 5.34 115.07 11.95 129.44 22.19 140.73 C 32.16 151.71 45.14 159.94 59.24 164.47 C 70.97 168.36 83.55 168.52 95.72 167.09 C 104.31 165.45 112.92 163.07 120.44 158.47 C 136.24 150.71 149.10 137.22 156.38 121.22 C 156.69 119.94 157.90 119.69 159.00 119.43 C 159.67 134.49 174.21 146.83 189.02 146.48 C 205.20 146.97 220.55 132.37 219.72 115.97 C 220.44 105.81 214.51 96.07 206.31 90.46 C 204.15 88.83 201.08 88.50 199.26 86.49 C 204.59 85.25 210.20 85.11 215.25 82.76 C 221.85 80.28 227.19 75.43 231.65 70.09 C 231.45 72.83 230.88 75.52 230.20 78.18 C 227.14 96.24 233.68 115.47 246.88 128.12 C 252.87 134.45 260.80 138.62 268.98 141.41 C 291.19 149.67 317.98 140.80 332.01 122.00 C 335.81 117.51 338.69 112.29 340.54 106.71 C 341.44 104.20 341.90 101.37 344.00 99.51 L 344.00 289.32 C 341.11 283.02 339.08 276.06 334.04 271.03 C 325.80 261.60 312.19 257.54 300.08 260.53 C 288.46 263.15 278.93 272.33 274.95 283.43 C 272.76 288.71 273.48 294.53 273.35 300.10 C 271.53 297.50 269.89 294.80 268.28 292.07 C 257.92 274.64 239.10 262.65 219.01 260.25 C 203.28 258.06 186.84 261.72 173.46 270.26 C 169.13 272.84 165.56 276.50 161.15 278.96 C 161.82 276.30 162.85 273.74 163.25 271.03 C 162.96 265.54 159.07 260.41 153.90 258.59 C 150.50 258.14 146.57 257.70 143.59 259.78 C 139.95 262.32 136.70 266.28 137.28 271.01 C 136.60 276.51 140.76 281.08 145.41 283.28 C 149.77 284.55 154.32 283.28 158.54 282.07 C 156.06 286.29 152.81 290.01 150.40 294.27 C 146.84 300.62 143.96 307.46 143.09 314.75 C 140.89 314.51 140.36 312.33 139.53 310.66 C 136.40 303.62 128.62 299.12 120.99 299.44 C 112.73 299.53 104.96 305.30 102.17 313.01 C 100.60 318.59 101.09 324.72 103.63 329.94 C 96.00 323.71 87.71 317.93 78.05 315.40 C 64.03 311.97 48.66 312.44 35.55 318.90 C 21.14 325.97 9.56 338.90 4.65 354.25 C -0.72 370.32 1.24 388.66 9.99 403.18 C 11.81 406.08 13.87 408.82 15.88 411.59 C 13.19 411.07 10.25 409.73 7.63 411.20 C 3.83 412.76 0.79 416.69 1.58 420.97 C 1.85 426.32 7.40 428.69 11.82 429.98 C 9.97 431.85 7.76 433.30 5.63 434.83 C 2.50 437.17 2.50 441.60 0.00 444.42 L 0.00 175.78 C 3.39 178.19 4.66 182.59 8.33 184.70 C 13.20 188.37 19.46 188.69 25.32 188.42 C 22.82 191.81 19.49 194.47 16.84 197.74 C 8.31 207.57 3.34 220.18 1.62 232.99 C 1.25 241.69 0.73 250.64 3.20 259.10 C 5.79 268.71 10.17 277.89 16.45 285.65 C 19.17 289.16 22.77 291.92 25.15 295.71 C 22.19 295.34 19.20 294.26 16.19 294.74 C 11.10 296.23 6.04 299.73 4.67 305.13 C 4.16 307.89 4.11 310.78 4.73 313.53 C 6.22 318.30 10.50 321.84 15.16 323.32 C 24.20 325.63 33.66 317.43 33.22 308.25 C 32.57 305.19 31.13 302.36 30.14 299.40 C 34.98 301.46 39.30 304.55 44.20 306.49 C 59.24 312.83 76.38 313.16 91.97 308.67 C 113.78 301.75 131.77 283.72 137.99 261.61 C 141.07 252.74 140.85 243.23 140.43 233.98 C 137.81 209.09 120.70 186.35 97.43 177.06 C 82.89 171.05 66.31 170.37 51.23 174.73 C 46.29 175.98 41.89 178.66 37.00 180.06 C 39.55 174.38 40.74 167.88 38.96 161.80 C 35.47 153.40 26.31 146.97 17.02 148.56 C 8.47 149.74 1.78 156.94 0.00 165.20 L 0.00 0.00 Z" />
<path fill="#91cbd3" d=" M 10.53 2.85 C 14.93 1.82 20.19 1.96 23.49 5.49 C 30.11 10.68 29.11 22.59 21.51 26.40 C 15.45 30.28 6.54 27.67 3.39 21.25 C -0.12 14.48 3.40 5.53 10.53 2.85 Z" />
<path fill="#91cbd3" d=" M 247.11 1.86 C 251.97 0.95 257.63 0.75 261.66 4.12 C 268.18 8.36 270.59 17.70 266.86 24.53 C 264.36 30.15 258.27 34.05 252.09 33.63 C 241.82 34.23 233.53 22.60 236.47 12.98 C 237.88 7.83 242.19 3.72 247.11 1.86 Z" />
<path fill="#91cbd3" d=" M 149.62 4.86 C 153.97 3.75 159.45 3.66 162.64 7.37 C 166.04 10.24 166.76 14.75 166.70 18.96 C 169.59 16.08 172.42 13.11 175.68 10.64 C 188.73 1.33 207.25 0.91 220.87 9.25 C 229.83 14.88 236.27 24.02 239.32 34.08 C 241.22 40.32 240.27 46.88 240.45 53.28 C 244.34 49.24 247.68 44.60 252.41 41.45 C 262.82 33.58 275.98 29.39 289.04 30.40 C 296.72 29.91 303.89 32.79 311.09 34.97 C 309.57 30.65 306.26 26.82 306.49 22.02 C 306.06 11.05 317.21 1.44 328.03 3.59 C 336.04 4.40 340.95 11.66 344.00 18.36 L 344.00 26.45 C 340.94 29.91 339.07 34.48 334.97 36.93 C 329.84 40.56 322.99 40.44 317.25 38.48 C 325.01 44.38 332.50 51.07 337.00 59.88 C 340.22 65.24 341.39 71.46 344.00 77.09 L 344.00 99.51 C 341.90 101.37 341.44 104.20 340.54 106.71 C 338.69 112.29 335.81 117.51 332.01 122.00 C 317.98 140.80 291.19 149.67 268.98 141.41 C 260.80 138.62 252.87 134.45 246.88 128.12 C 233.68 115.47 227.14 96.24 230.20 78.18 C 230.88 75.52 231.45 72.83 231.65 70.09 C 227.19 75.43 221.85 80.28 215.25 82.76 C 210.20 85.11 204.59 85.25 199.26 86.49 C 201.08 88.50 204.15 88.83 206.31 90.46 C 214.51 96.07 220.44 105.81 219.72 115.97 C 220.55 132.37 205.20 146.97 189.02 146.48 C 174.21 146.83 159.67 134.49 159.00 119.43 C 157.90 119.69 156.69 119.94 156.38 121.22 C 149.10 137.22 136.24 150.71 120.44 158.47 C 112.92 163.07 104.31 165.45 95.72 167.09 C 83.55 168.52 70.97 168.36 59.24 164.47 C 45.14 159.94 32.16 151.71 22.19 140.73 C 11.95 129.44 5.34 115.07 2.64 100.12 C -0.70 81.03 3.22 60.81 13.36 44.30 C 18.06 36.31 24.61 29.61 31.53 23.52 C 37.06 18.60 43.90 15.61 50.38 12.20 C 68.38 3.91 89.55 3.21 108.30 9.33 C 116.36 11.91 123.56 16.48 130.88 20.61 C 131.61 17.57 133.72 15.49 136.64 14.49 C 138.28 15.55 139.92 16.61 141.57 17.67 C 142.31 12.55 144.30 6.80 149.62 4.86 Z" />
<path fill="#91cbd3" d=" M 284.52 4.87 C 291.96 1.03 302.27 7.49 301.60 15.97 C 302.01 20.84 298.24 24.95 294.24 27.14 C 291.41 27.95 288.34 27.81 285.46 27.34 C 281.02 25.48 277.05 21.05 277.42 15.97 C 276.99 11.14 280.28 6.80 284.52 4.87 Z" />
<path fill="#ffffff" d=" M 141.24 23.32 C 141.63 22.22 141.44 20.25 143.00 20.11 C 145.37 20.41 143.48 23.56 145.38 24.58 C 149.24 29.29 155.82 28.99 161.08 27.29 C 158.61 35.48 156.75 44.13 158.79 52.65 C 158.26 52.61 157.20 52.52 156.67 52.48 C 152.22 42.81 146.08 33.59 137.59 27.01 C 138.85 25.83 140.29 24.79 141.24 23.32 Z" />
<path fill="#ffffff" d=" M 334.97 36.93 C 339.07 34.48 340.94 29.91 344.00 26.45 L 344.00 77.09 C 341.39 71.46 340.22 65.24 337.00 59.88 C 332.50 51.07 325.01 44.38 317.25 38.48 C 322.99 40.44 329.84 40.56 334.97 36.93 Z" />
<path fill="#ffffff" d=" M 161.57 64.82 C 164.44 65.16 165.22 68.29 166.98 70.12 C 171.00 74.85 175.63 79.36 181.42 81.83 C 183.72 82.84 185.97 83.97 188.11 85.28 C 179.63 85.35 171.13 89.29 165.81 95.95 L 163.69 96.82 C 164.23 89.91 164.81 82.93 163.72 76.03 C 163.36 72.22 161.89 68.63 161.57 64.82 Z" />
<path fill="#91cbd3" d=" M 218.89 133.03 C 219.32 127.83 222.40 122.95 227.12 120.65 C 235.05 116.60 245.88 124.18 244.81 132.99 C 245.30 137.50 242.61 141.55 238.95 143.93 C 235.86 146.29 231.67 145.71 228.06 145.31 C 222.96 143.38 219.29 138.49 218.89 133.03 Z" />
<path fill="#91cbd3" d=" M 330.60 128.83 C 333.56 127.97 337.37 127.91 339.52 130.51 C 344.66 134.63 340.82 144.75 334.00 143.75 C 329.55 144.44 326.05 140.06 325.67 136.00 C 325.94 132.91 328.02 130.38 330.60 128.83 Z" />
<path fill="#91cbd3" d=" M 0.00 165.20 C 1.78 156.94 8.47 149.74 17.02 148.56 C 26.31 146.97 35.47 153.40 38.96 161.80 C 40.74 167.88 39.55 174.38 37.00 180.06 C 41.89 178.66 46.29 175.98 51.23 174.73 C 66.31 170.37 82.89 171.05 97.43 177.06 C 120.70 186.35 137.81 209.09 140.43 233.98 C 140.85 243.23 141.07 252.74 137.99 261.61 C 131.77 283.72 113.78 301.75 91.97 308.67 C 76.38 313.16 59.24 312.83 44.20 306.49 C 39.30 304.55 34.98 301.46 30.14 299.40 C 31.13 302.36 32.57 305.19 33.22 308.25 C 33.66 317.43 24.20 325.63 15.16 323.32 C 10.50 321.84 6.22 318.30 4.73 313.53 C 4.11 310.78 4.16 307.89 4.67 305.13 C 6.04 299.73 11.10 296.23 16.19 294.74 C 19.20 294.26 22.19 295.34 25.15 295.71 C 22.77 291.92 19.17 289.16 16.45 285.65 C 10.17 277.89 5.79 268.71 3.20 259.10 C 0.73 250.64 1.25 241.69 1.62 232.99 C 3.34 220.18 8.31 207.57 16.84 197.74 C 19.49 194.47 22.82 191.81 25.32 188.42 C 19.46 188.69 13.20 188.37 8.33 184.70 C 4.66 182.59 3.39 178.19 0.00 175.78 L 0.00 165.20 Z" />
<path fill="#91cbd3" d=" M 125.62 166.94 C 130.45 166.32 135.23 169.10 137.93 173.02 C 140.42 176.03 139.77 180.27 139.46 183.87 C 138.45 187.09 135.88 189.69 133.05 191.43 C 126.58 194.64 117.31 191.79 114.98 184.59 C 111.84 176.96 117.57 167.92 125.62 166.94 Z" />
<path fill="#91cbd3" d=" M 143.59 259.78 C 146.57 257.70 150.50 258.14 153.90 258.59 C 159.07 260.41 162.96 265.54 163.25 271.03 C 162.85 273.74 161.82 276.30 161.15 278.96 C 165.56 276.50 169.13 272.84 173.46 270.26 C 186.84 261.72 203.28 258.06 219.01 260.25 C 239.10 262.65 257.92 274.64 268.28 292.07 C 269.89 294.80 271.53 297.50 273.35 300.10 C 273.48 294.53 272.76 288.71 274.95 283.43 C 278.93 272.33 288.46 263.15 300.08 260.53 C 312.19 257.54 325.80 261.60 334.04 271.03 C 339.08 276.06 341.11 283.02 344.00 289.32 L 344.00 301.40 C 341.44 304.75 340.77 309.04 338.50 312.55 C 333.86 320.08 326.53 326.32 317.76 328.25 C 317.71 328.56 317.60 329.19 317.55 329.51 C 321.59 330.95 325.80 332.44 328.77 335.70 C 325.92 331.59 326.31 325.45 330.54 322.43 C 335.56 319.14 342.90 322.37 344.00 328.28 L 344.00 331.79 C 342.92 333.95 341.62 336.22 339.37 337.34 C 337.34 338.28 335.04 338.19 332.87 338.46 C 338.58 344.92 342.85 353.12 342.59 361.95 C 343.71 380.32 327.46 397.74 309.00 397.61 C 292.89 398.71 277.54 386.49 273.91 370.96 C 272.95 366.03 273.50 360.98 273.41 356.00 C 267.65 366.79 260.26 376.85 250.27 384.08 C 238.17 392.14 223.75 397.49 209.05 396.64 C 199.81 397.24 190.86 394.36 182.41 390.97 C 176.54 387.89 170.35 385.10 165.48 380.50 C 162.83 378.10 160.62 375.17 157.45 373.38 C 157.37 378.48 158.83 384.22 155.79 388.78 C 152.91 393.30 148.44 397.24 142.98 398.05 C 135.28 399.29 127.00 395.00 123.77 387.86 C 122.39 384.73 121.18 381.36 121.36 377.88 C 123.31 371.58 127.51 365.49 133.88 363.07 C 139.89 361.12 146.29 362.74 151.75 365.53 C 150.09 361.02 147.30 357.03 145.74 352.47 C 143.10 345.03 141.18 337.19 141.59 329.24 C 138.69 329.71 137.51 332.82 135.47 334.59 C 128.58 341.45 117.13 341.34 109.19 336.41 C 114.78 345.08 119.65 354.62 120.56 365.05 C 120.97 373.40 121.06 381.94 118.65 390.04 C 114.76 403.77 105.26 415.45 93.50 423.33 C 81.37 431.23 66.26 433.88 52.03 431.90 C 40.31 430.14 29.47 424.49 20.67 416.66 C 20.17 419.24 19.91 421.89 18.99 424.37 C 17.27 426.58 14.85 428.13 12.97 430.21 C 18.06 430.66 23.47 432.27 26.47 436.72 C 29.57 440.49 28.46 445.63 28.47 450.11 C 38.94 441.15 52.22 435.67 65.93 434.48 C 72.79 434.48 79.78 433.91 86.49 435.72 C 92.22 436.66 97.40 439.39 102.96 440.92 C 100.40 435.12 99.13 428.32 101.46 422.24 C 104.71 414.72 112.42 408.48 120.94 409.23 C 131.83 408.36 141.49 418.29 141.70 428.92 C 142.11 438.23 135.38 447.09 126.50 449.64 C 123.33 450.54 119.99 450.41 116.73 450.53 C 119.79 453.74 123.23 456.59 125.92 460.14 C 132.45 467.91 136.63 477.41 139.12 487.19 C 141.06 494.28 140.68 501.72 140.58 509.00 C 140.00 518.22 137.07 527.22 132.78 535.37 C 130.84 539.18 128.13 542.52 126.04 546.24 C 129.86 546.13 134.15 545.95 137.03 548.96 C 143.23 553.75 141.27 564.63 134.06 567.41 C 127.72 570.71 119.79 565.80 118.59 559.13 C 118.38 557.42 118.33 555.71 118.25 554.00 C 115.75 555.61 113.51 557.57 111.19 559.43 C 88.93 575.67 56.58 575.67 34.02 560.03 C 31.61 558.07 29.17 556.11 26.37 554.72 C 27.98 559.24 28.81 564.71 25.76 568.85 C 21.75 575.08 12.29 576.39 6.67 571.58 C 2.10 568.38 1.38 562.19 2.64 557.15 C 4.03 553.84 6.79 551.04 10.11 549.67 C 13.97 548.79 17.95 549.43 21.85 549.62 C 2.60 529.67 -2.16 497.50 10.48 472.83 C 12.87 467.29 16.97 462.81 19.96 457.65 C 15.67 457.69 10.87 458.50 7.25 455.57 C 3.27 453.52 2.83 448.61 0.00 445.56 L 0.00 444.42 C 2.50 441.60 2.50 437.17 5.63 434.83 C 7.76 433.30 9.97 431.85 11.82 429.98 C 7.40 428.69 1.85 426.32 1.58 420.97 C 0.79 416.69 3.83 412.76 7.63 411.20 C 10.25 409.73 13.19 411.07 15.88 411.59 C 13.87 408.82 11.81 406.08 9.99 403.18 C 1.24 388.66 -0.72 370.32 4.65 354.25 C 9.56 338.90 21.14 325.97 35.55 318.90 C 48.66 312.44 64.03 311.97 78.05 315.40 C 87.71 317.93 96.00 323.71 103.63 329.94 C 101.09 324.72 100.60 318.59 102.17 313.01 C 104.96 305.30 112.73 299.53 120.99 299.44 C 128.62 299.12 136.40 303.62 139.53 310.66 C 140.36 312.33 140.89 314.51 143.09 314.75 C 143.96 307.46 146.84 300.62 150.40 294.27 C 152.81 290.01 156.06 286.29 158.54 282.07 C 154.32 283.28 149.77 284.55 145.41 283.28 C 140.76 281.08 136.60 276.51 137.28 271.01 C 136.70 266.28 139.95 262.32 143.59 259.78 Z" />
<path fill="#ffffff" d=" M 338.50 312.55 C 340.77 309.04 341.44 304.75 344.00 301.40 L 344.00 328.28 C 342.90 322.37 335.56 319.14 330.54 322.43 C 326.31 325.45 325.92 331.59 328.77 335.70 C 325.80 332.44 321.59 330.95 317.55 329.51 C 317.60 329.19 317.71 328.56 317.76 328.25 C 326.53 326.32 333.86 320.08 338.50 312.55 Z" />
<path fill="#ffffff" d=" M 276.52 311.19 C 280.32 316.04 284.08 321.19 289.40 324.50 C 292.35 326.32 295.61 327.51 298.73 329.01 C 291.95 331.46 285.40 335.15 280.95 340.96 C 280.16 342.24 278.87 342.91 277.42 343.17 C 279.01 332.57 279.33 321.61 276.52 311.19 Z" />
<path fill="#91cbd3" d=" M 4.04 326.12 C 6.94 323.13 10.87 325.15 13.42 327.43 C 13.53 329.49 13.98 331.63 13.35 333.65 C 12.00 335.41 10.04 336.86 7.84 337.33 C 2.43 337.11 -0.82 329.42 4.04 326.12 Z" />
<path fill="#ffffff" d=" M 135.47 334.59 C 137.51 332.82 138.69 329.71 141.59 329.24 C 141.18 337.19 143.10 345.03 145.74 352.47 C 147.30 357.03 150.09 361.02 151.75 365.53 C 146.29 362.74 139.89 361.12 133.88 363.07 C 127.51 365.49 123.31 371.58 121.36 377.88 C 121.18 381.36 122.39 384.73 123.77 387.86 C 127.00 395.00 135.28 399.29 142.98 398.05 C 148.44 397.24 152.91 393.30 155.79 388.78 C 158.83 384.22 157.37 378.48 157.45 373.38 C 160.62 375.17 162.83 378.10 165.48 380.50 C 170.35 385.10 176.54 387.89 182.41 390.97 C 190.86 394.36 199.81 397.24 209.05 396.64 C 223.75 397.49 238.17 392.14 250.27 384.08 C 260.26 376.85 267.65 366.79 273.41 356.00 C 273.50 360.98 272.95 366.03 273.91 370.96 C 277.54 386.49 292.89 398.71 309.00 397.61 C 327.46 397.74 343.71 380.32 342.59 361.95 C 342.85 353.12 338.58 344.92 332.87 338.46 C 335.04 338.19 337.34 338.28 339.37 337.34 C 341.62 336.22 342.92 333.95 344.00 331.79 L 344.00 576.00 L 0.00 576.00 L 0.00 445.56 C 2.83 448.61 3.27 453.52 7.25 455.57 C 10.87 458.50 15.67 457.69 19.96 457.65 C 16.97 462.81 12.87 467.29 10.48 472.83 C -2.16 497.50 2.60 529.67 21.85 549.62 C 17.95 549.43 13.97 548.79 10.11 549.67 C 6.79 551.04 4.03 553.84 2.64 557.15 C 1.38 562.19 2.10 568.38 6.67 571.58 C 12.29 576.39 21.75 575.08 25.76 568.85 C 28.81 564.71 27.98 559.24 26.37 554.72 C 29.17 556.11 31.61 558.07 34.02 560.03 C 56.58 575.67 88.93 575.67 111.19 559.43 C 113.51 557.57 115.75 555.61 118.25 554.00 C 118.33 555.71 118.38 557.42 118.59 559.13 C 119.79 565.80 127.72 570.71 134.06 567.41 C 141.27 564.63 143.23 553.75 137.03 548.96 C 134.15 545.95 129.86 546.13 126.04 546.24 C 128.13 542.52 130.84 539.18 132.78 535.37 C 137.07 527.22 140.00 518.22 140.58 509.00 C 140.68 501.72 141.06 494.28 139.12 487.19 C 136.63 477.41 132.45 467.91 125.92 460.14 C 123.23 456.59 119.79 453.74 116.73 450.53 C 119.99 450.41 123.33 450.54 126.50 449.64 C 135.38 447.09 142.11 438.23 141.70 428.92 C 141.49 418.29 131.83 408.36 120.94 409.23 C 112.42 408.48 104.71 414.72 101.46 422.24 C 99.13 428.32 100.40 435.12 102.96 440.92 C 97.40 439.39 92.22 436.66 86.49 435.72 C 79.78 433.91 72.79 434.48 65.93 434.48 C 52.22 435.67 38.94 441.15 28.47 450.11 C 28.46 445.63 29.57 440.49 26.47 436.72 C 23.47 432.27 18.06 430.66 12.97 430.21 C 14.85 428.13 17.27 426.58 18.99 424.37 C 19.91 421.89 20.17 419.24 20.67 416.66 C 29.47 424.49 40.31 430.14 52.03 431.90 C 66.26 433.88 81.37 431.23 93.50 423.33 C 105.26 415.45 114.76 403.77 118.65 390.04 C 121.06 381.94 120.97 373.40 120.56 365.05 C 119.65 354.62 114.78 345.08 109.19 336.41 C 117.13 341.34 128.58 341.45 135.47 334.59 Z" />
</svg>
