<?xml version="1.0" encoding="UTF-8" standalone="no"?>
<svg width="172px" height="291px" viewBox="0 0 172 291" version="1.1" xmlns="http://www.w3.org/2000/svg" xmlns:xlink="http://www.w3.org/1999/xlink" xmlns:sketch="http://www.bohemiancoding.com/sketch/ns">
    <!-- Generator: Sketch 3.3.3 (12081) - http://www.bohemiancoding.com/sketch -->
    <title>Slice 1</title>
    <desc>Created with Sketch.</desc>
    <defs></defs>
    <g id="Page-1" stroke="none" stroke-width="1" fill="none" fill-rule="evenodd" sketch:type="MSPage">
        <g id="logo" sketch:type="MSLayerGroup">
            <path d="M0,0 L172,0 L172,40.49 C170.76,31.37 165.22,23.03 157.31,18.37 C151.6,15.67 145.16,14.39 138.87,15.4 C130.95,16.47 123.83,21.32 119.4,27.9 C122.86,17.97 116.6,6.41 106.91,2.91 C98.71,-0.34 88.37,2.45 83.37,9.84 C83.94,5.98 81.2,1.74 77.02,1.97 C73.27,1.93 71.02,5.48 70.64,8.84 C68.92,6.48 65.69,7.72 65.39,10.43 C58.54,5.6 50.38,2.58 41.94,2.6 C27.49,2.33 13.24,10.49 6.14,23.07 C0.6,32.57 -0.75,44.38 2.43,54.91 C5.45,65.08 12.56,74.11 22.07,78.95 C30.72,83.98 41.34,85.19 51.02,82.87 C63.74,79.76 74.68,70.34 79.46,58.11 C78.64,66.81 87.56,74.27 95.98,73.21 C104.41,72.69 111.22,64.22 109.84,55.87 C109.1,50.55 105.28,44.68 99.6,44.04 C99.6,43.66 99.6,43.29 99.61,42.91 C106.02,43.23 112.09,39.86 116.02,34.95 C113.9,42.21 114.42,50.31 118.06,57 C122.84,66.1 132.72,72.14 142.99,72.25 C157.95,72.74 171.7,59.85 172,44.84 L172,164.12 C171.37,160.92 167.05,159.32 164.74,161.82 C161.77,164.26 164.25,169.57 167.93,169.12 C169.88,169.15 171.17,167.57 172,166.01 L172,288 L0,288 L0,85.68 C0.88,91.94 7.97,96 13.8,93.46 C1.31,103.01 -3.15,121.39 3.71,135.56 C7.38,143.58 14.22,150.07 22.4,153.37 C31.78,157.23 42.87,156.67 51.81,151.88 C59.53,147.81 65.61,140.76 68.5,132.53 C72.49,121.42 70.32,108.31 62.85,99.14 C52.59,85.52 31.97,82.01 17.49,90.82 C22.04,86 20.04,77.33 13.85,74.99 C8.17,72.32 1.31,76.36 0,82.28 L0,0 L0,0 Z" id="Shape" fill="#FFFFFF" sketch:type="MSShapeGroup"></path>
            <path d="M5.28,4.47 C9.91,2.56 15.22,7.37 13.85,12.16 C12.92,16.63 6.84,18.69 3.39,15.67 C-0.66,12.86 0.6,5.87 5.28,4.47 L5.28,4.47 Z" id="Shape" fill="#91CBD3" sketch:type="MSShapeGroup"></path>
            <path d="M122.38,4.4 C127.33,1.76 134.06,5.37 134.31,11.04 C135.09,17.27 127.48,22.22 122.15,18.83 C116.49,16.05 116.69,7.03 122.38,4.4 L122.38,4.4 Z" id="Shape" fill="#91CBD3" sketch:type="MSShapeGroup"></path>
            <path d="M70.64,11.84 C71.02,8.48 73.27,4.93 77.02,4.97 C81.2,4.74 83.94,8.98 83.37,12.84 C88.37,5.45 98.71,2.66 106.91,5.91 C116.6,9.41 122.86,20.97 119.4,30.9 C123.83,24.32 130.95,19.47 138.87,18.4 C145.16,17.39 151.6,18.67 157.31,21.37 C165.22,26.03 170.76,34.37 172,43.49 L172,47.84 C171.7,62.85 157.95,75.74 142.99,75.25 C132.72,75.14 122.84,69.1 118.06,60 C114.42,53.31 113.9,45.21 116.02,37.95 C112.09,42.86 106.02,46.23 99.61,45.91 C99.6,46.29 99.6,46.66 99.6,47.04 C105.28,47.68 109.1,53.55 109.84,58.87 C111.22,67.22 104.41,75.69 95.98,76.21 C87.56,77.27 78.64,69.81 79.46,61.11 C74.68,73.34 63.74,82.76 51.02,85.87 C41.34,88.19 30.72,86.98 22.07,81.95 C12.56,77.11 5.45,68.08 2.43,57.91 C-0.75,47.38 0.6,35.57 6.14,26.07 C13.24,13.49 27.49,5.33 41.94,5.6 C50.38,5.58 58.54,8.6 65.39,13.43 C65.69,10.72 68.92,9.48 70.64,11.84 L70.64,11.84 Z" id="Shape" fill="#91CBD3" sketch:type="MSShapeGroup"></path>
            <path d="M142.27,5.4 C146.5,3.32 151.93,7.52 150.72,12.15 C149.99,16.64 143.8,18.69 140.61,15.38 C137.36,12.68 138.34,6.93 142.27,5.4 L142.27,5.4 Z" id="Shape" fill="#91CBD3" sketch:type="MSShapeGroup"></path>
            <path d="M159.2,5.26 C164.85,2.75 172.22,7.65 171.46,13.97 C172.1,20.81 163.17,25.68 157.79,21.39 C151.04,18.27 152.35,7.47 159.2,5.26 L159.2,5.26 Z" id="Shape" fill="#91CBD3" sketch:type="MSShapeGroup"></path>
            <path d="M71.34,13.54 C73.14,17.48 78.91,18.68 81.74,15.18 C73.81,27.08 83.38,45.67 97.82,45.55 C91.52,44.87 84.86,47.23 81.43,52.77 C84.13,39.57 78.88,25.42 69.06,16.38 C69.96,15.55 70.72,14.6 71.34,13.54 L71.34,13.54 Z" id="Shape" fill="#91CBD3" sketch:type="MSShapeGroup"></path>
            <path d="M113.34,63.42 C118.01,60.82 123.95,65.9 122.5,70.9 C121.56,75.56 115.16,77.59 111.75,74.27 C108.22,71.38 109.22,65.23 113.34,63.42 L113.34,63.42 Z" id="Shape" fill="#91CBD3" sketch:type="MSShapeGroup"></path>
            <path d="M165.35,67.43 C168.19,65.99 171.91,68.96 170.91,72.07 C170.2,74.93 166.23,76.1 164.18,73.94 C162.07,72.14 162.74,68.37 165.35,67.43 L165.35,67.43 Z" id="Shape" fill="#91CBD3" sketch:type="MSShapeGroup"></path>
            <path d="M0,85.28 C1.31,79.36 8.17,75.32 13.85,77.99 C20.04,80.33 22.04,89 17.49,93.82 C31.97,85.01 52.59,88.52 62.85,102.14 C70.32,111.31 72.49,124.42 68.5,135.53 C65.61,143.76 59.53,150.81 51.81,154.88 C42.87,159.67 31.78,160.23 22.4,156.37 C14.22,153.07 7.38,146.58 3.71,138.56 C-3.15,124.39 1.31,106.01 13.8,96.46 C7.97,99 0.88,94.94 0,88.68 L0,85.28 L0,85.28 Z" id="Shape" fill="#91CBD3" sketch:type="MSShapeGroup"></path>
            <path d="M60.25,87.35 C63.66,85.3 68.56,87.13 69.71,90.96 C71.11,94.78 68.03,99.37 63.95,99.45 C61.67,99.77 59.81,98.1 58.26,96.67 C55.89,93.83 57.08,89.1 60.25,87.35 L60.25,87.35 Z" id="Shape" fill="#91CBD3" sketch:type="MSShapeGroup"></path>
            <path d="M73.12,132.27 C77.65,130.67 82.69,135.41 81.34,140.03 C80.41,144.66 74,146.78 70.64,143.32 C66.72,140.27 68.5,133.55 73.12,132.27 L73.12,132.27 Z" id="Shape" fill="#91CBD3" sketch:type="MSShapeGroup"></path>
            <path d="M84.03,139.97 C92.76,133.08 104.92,130.99 115.48,134.41 C124.85,137.24 132.3,144.46 136.62,153.1 C135.89,147.54 137.76,141.73 141.81,137.83 C146.17,133.4 153.02,131.77 158.96,133.51 C164.56,134.98 169.05,139.61 170.87,145.04 C171.68,149.49 172.03,154.51 169.64,158.57 C167.35,163.06 163.02,166.34 158.13,167.53 C160.63,168.1 162.95,169.21 164.29,171.49 C167.44,172.19 168.84,175.29 170.1,177.92 C173.13,184.97 170.65,193.8 164.46,198.31 C158.31,203.17 148.88,202.98 142.9,197.91 C137.56,193.74 135.64,186.56 136.74,180.05 C130.9,196.25 111.11,205.45 94.9,199.87 C80.35,195.75 69.91,181.06 70.71,165.97 C69.19,169.54 66.11,172.71 62.05,173.01 C59.3,173.49 56.67,172.39 54.29,171.14 C64.36,183.16 61.99,202.95 49.68,212.55 C38.29,222.32 19.63,221.29 9.38,210.33 C12.48,214.97 5.49,220.38 1.91,216.03 C-1.66,212.22 3.42,206.24 7.92,208.66 C-0.65,198.97 -1.47,183.56 5.8,172.91 C11.4,164.28 21.71,158.97 32,159.55 C39.42,159.66 46.31,163.14 51.81,167.92 C48.56,162.42 51.75,154.62 57.95,153.06 C63.82,151.19 70.35,155.66 70.98,161.73 C72.61,153.24 77.08,145.22 84.03,139.97 L84.03,139.97 Z" id="Shape" fill="#91CBD3" sketch:type="MSShapeGroup"></path>
            <path d="M6.2,151.13 C10.78,148.49 17.07,152.8 16.5,158 C16.45,163.24 9.64,166.88 5.39,163.61 C0.62,160.99 1.14,153.14 6.2,151.13 L6.2,151.13 Z" id="Shape" fill="#91CBD3" sketch:type="MSShapeGroup"></path>
            <path d="M138.21,158.04 C140.39,162.68 144.68,165.63 149.23,167.63 C144.43,169.06 140.29,172.49 138.17,177.05 C139.59,170.81 139.91,164.27 138.21,158.04 L138.21,158.04 Z" id="Shape" fill="#91CBD3" sketch:type="MSShapeGroup"></path>
            <path d="M164.74,164.82 C167.05,162.32 171.37,163.92 172,167.12 L172,169.01 C171.17,170.57 169.88,172.15 167.93,172.12 C164.25,172.57 161.77,167.26 164.74,164.82 L164.74,164.82 Z" id="Shape" fill="#91CBD3" sketch:type="MSShapeGroup"></path>
            <path d="M2.11,165.96 C3.8,164.47 6.86,165.81 6.99,168.04 C7.39,170.12 5.08,172.08 3.1,171.41 C0.69,170.98 -0.02,167.21 2.11,165.96 L2.11,165.96 Z" id="Shape" fill="#91CBD3" sketch:type="MSShapeGroup"></path>
            <path d="M66.52,184.71 C72.92,181.67 80.7,188.39 78.78,195.14 C77.52,201.85 68.11,204.53 63.54,199.43 C58.93,195.19 60.72,186.89 66.52,184.71 L66.52,184.71 Z" id="Shape" fill="#91CBD3" sketch:type="MSShapeGroup"></path>
            <path d="M51.85,223.87 C48.08,218.4 50.59,210.03 57.02,207.99 C63.89,205.21 72.03,211.74 70.81,219.04 C70.24,225.25 63.8,229.19 57.89,228.21 C72.5,238.95 74.61,262.19 62.96,275.88 C65.34,275.9 68.09,276.22 69.48,278.45 C71.79,281.48 69.79,286.41 66.06,287.05 C62.01,288.16 58.26,283.97 59.26,280.03 C49.13,289.1 33.66,291.64 21.37,285.58 C13.34,281.58 6.64,274.55 3.7,266 C-0.53,254.37 2.13,240.5 10.63,231.44 C6.86,233.22 1.94,231.12 0.91,227.02 C-0.89,221.66 5.91,216.12 10.75,219.2 C14.13,220.7 15.12,224.81 14.11,228.13 C24.3,219.2 39.9,217.66 51.85,223.87 L51.85,223.87 Z" id="Shape" fill="#91CBD3" sketch:type="MSShapeGroup"></path>
            <path d="M4.23,278.19 C7.9,275.7 12.16,278.71 13.8,282.05 C15.58,287.32 9.06,292.41 4.37,289.53 C-0.13,287.49 -0.21,280.32 4.23,278.19 L4.23,278.19 Z" id="Shape" fill="#91CBD3" sketch:type="MSShapeGroup"></path>
        </g>
    </g>
</svg>