<?xml version="1.0" encoding="UTF-8" standalone="no"?>
<svg width="159px" height="32px" viewBox="0 0 159 32" version="1.1" xmlns="http://www.w3.org/2000/svg" xmlns:xlink="http://www.w3.org/1999/xlink" xmlns:sketch="http://www.bohemiancoding.com/sketch/ns">
    <!-- Generator: Sketch 3.1 (8751) - http://www.bohemiancoding.com/sketch -->
    <title>Frantic Logo</title>
    <desc>Created with Sketch.</desc>
    <defs></defs>
    <g id="Page-1" stroke="none" stroke-width="1" fill="none" fill-rule="evenodd" sketch:type="MSPage">
        <g id="frantic" sketch:type="MSLayerGroup" transform="translate(1.500000, 0.000000)" fill="#000000">
            <g id="Group" sketch:type="MSShapeGroup">
                <path d="M-0.4522,1 L17.35377,1 L17.35377,7.70373846 L7.21616,7.70373846 L7.21616,12.7928462 L14.99519,12.7928462 L14.99519,19.5001385 L7.21616,19.5001385 L7.21616,30.8914 L-0.4522,30.8914 L-0.4522,1 L-0.4522,1 Z" id="Shape"></path>
                <path d="M86.43565,19.0014154 L86.43565,1 L93.79699,1 L93.79699,30.9636615 L87.12704,30.9636615 L75.77563,13.1446769 L75.77563,30.9636615 L68.41548,30.9636615 L68.41548,1 L75.04497,1 L86.43565,19.0014154 L86.43565,19.0014154 Z" id="Shape"></path>
                <path d="M101.95087,7.72150769 L96.01158,7.72150769 L96.01158,1 L115.53591,1 L115.53591,7.72150769 L109.63827,7.72150769 L109.63827,30.9636615 L101.95087,30.9636615 L101.95087,7.72150769 L101.95087,7.72150769 Z" id="Shape"></path>
                <path d="M117.79691,1 L125.48312,1 L125.48312,30.9636615 L117.79691,30.9636615 L117.79691,1 L117.79691,1 Z" id="Shape"></path>
                <path d="M64.18384,1 L56.55951,1 L56.49644,1 L39.79122,24.7100769 L37.10182,19.9502923 C38.52387,19.3425846 39.99114,18.3309231 41.00621,16.7518308 C41.86063,15.4144 42.51156,13.6327385 42.51156,11.3262923 C42.51156,8.04372308 41.37273,5.08929231 38.85112,3.14652308 C37.18393,1.85055385 34.25534,1 29.53699,1 L19.69331,1 L19.69331,30.9624769 L27.38071,30.9624769 L27.38071,7.72032308 L30.22838,7.72032308 C31.28748,7.72032308 32.50723,8.00344615 33.36165,8.53178462 C34.37791,9.17976923 35.15022,10.4330923 35.15022,12.0121846 C35.15022,13.6730154 34.3791,15.091 33.44376,15.6975231 C32.42512,16.3443231 30.75912,16.5078 28.80633,16.5078 L27.54493,16.5078 L35.39179,30.9553692 L35.38584,30.9612923 L35.39417,30.9612923 L43.32433,30.9612923 L44.19303,30.9612923 L56.5607,13.0262154 L56.5607,30.9624769 L64.25048,30.9624769 L64.25048,1 L64.18384,1 L64.18384,1 Z" id="Shape"></path>
                <path d="M156.6278,23.5975385 C153.87176,28.2317538 148.85353,31.0985231 143.16414,31.0985231 C133.72744,31.0985231 127.30263,23.6082 127.30263,15.5089846 C127.30263,7.85636923 133.23954,0 143.08441,0 C149.19506,0 153.4624,3.03735385 155.93403,6.45496923 L149.68415,10.6236308 C148.54175,8.69152308 146.40689,6.72150769 143.04276,6.72269231 C137.87816,6.72269231 134.99003,11.2171231 134.99003,15.4675231 C134.99003,20.0022308 138.08165,24.3758308 143.0856,24.3758308 C147.61236,24.3758308 150.22679,19.5200923 150.22679,19.5200923 L156.6278,23.5975385 L156.6278,23.5975385 Z" id="Shape"></path>
            </g>
        </g>
    </g>
</svg>