<?xml version="1.0" encoding="utf-8"?>
<!-- Generator: Adobe Illustrator 16.2.1, SVG Export Plug-In . SVG Version: 6.00 Build 0)  -->
<!DOCTYPE svg PUBLIC "-//W3C//DTD SVG 1.1//EN" "http://www.w3.org/Graphics/SVG/1.1/DTD/svg11.dtd">
<svg version="1.1" id="Layer_1" xmlns="http://www.w3.org/2000/svg" xmlns:xlink="http://www.w3.org/1999/xlink" x="0px" y="0px"
	 width="1856px" height="512px" viewBox="0 0 1856 512" enable-background="new 0 0 1856 512" xml:space="preserve">
<path d="M176.884,64.035H32v374.443h85.954V133.795h44.027c33.069,0,73.834,5.338,73.834,43.893
	c0,34.944-30.284,45.045-60.559,45.045h-27.602v69.769h33.076c82.106,0,144.304-27.008,144.304-114.814
	C325.034,88.873,257.832,64.035,176.884,64.035z"/>
<path d="M716.681,64h85.907v298.31h159.168v76.14H716.681V64z"/>
<path d="M998.05,64h129.977l89.774,244.35h1.099L1309.227,64h129.408v374.449h-85.912V151.268h-1.082l-102.45,287.181h-65.526
	l-98.572-287.181h-1.128v287.181H998.05V64z"/>
<path d="M1824,294.072c0,88.34-56.154,153.928-164.111,153.928c-108.495,0-164.662-65.588-164.662-153.928V64h85.913v226.885
	c0,46.023,33.037,80.928,78.749,80.928c45.173,0,78.199-34.904,78.199-80.928V64H1824V294.072z"/>
<path d="M430.334,289.307l47.352-116.335l34.578,83.945h90.826L515.695,64H444.65L276.138,438.449h94.715l32.497-79.298h151.448
	l33.589,79.298h96.925l-67.583-149.192L430.334,289.307z"/>
</svg>
